<?xml version="1.0" standalone="no"?>
<!DOCTYPE svg PUBLIC "-//W3C//DTD SVG 1.1//EN" "http://www.w3.org/Graphics/SVG/1.1/DTD/svg11.dtd" >
<svg xmlns="http://www.w3.org/2000/svg">
<metadata>Generated by IcoMoon</metadata>
<defs>
<font id="icomoon" horiz-adv-x="1024">
<font-face units-per-em="1024" ascent="960" descent="-64" />
<missing-glyph horiz-adv-x="1024" />
<glyph unicode="&#x20;" horiz-adv-x="512" d="" />
<glyph unicode="&#xe900;" glyph-name="icon-cancel" d="M583.68 448l296.96 296.96c20.48 20.48 20.48 51.2 0 71.68s-51.2 20.48-71.68 0l-296.96-296.96-296.96 296.96c-20.48 20.48-51.2 20.48-71.68 0s-20.48-51.2 0-71.68l296.96-296.96-296.96-296.96c-20.48-20.48-20.48-51.2 0-71.68 10.24-10.24 25.6-15.36 35.84-15.36s25.6 5.12 35.84 15.36l296.96 296.96 296.96-296.96c10.24-10.24 25.6-15.36 35.84-15.36s25.6 5.12 35.84 15.36c20.48 20.48 20.48 51.2 0 71.68l-296.96 296.96z" />
<glyph unicode="&#xe901;" glyph-name="icon-clients" d="M839.68 791.040l20.48 25.6c15.36 20.48 15.36 51.2 0 71.68-20.48 20.48-51.2 20.48-71.68 0l-117.76-122.88-158.72 168.96-158.72-174.080-117.76 128c-20.48 20.48-51.2 20.48-71.68 0s-20.48-51.2 0-71.68l20.48-25.6c-199.68-117.76-189.44-568.32-179.2-752.64 0-40.96 35.84-71.68 76.8-71.68v0 0h860.16c40.96 0 71.68 30.72 76.8 71.68 10.24 184.32 20.48 634.88-179.2 752.64zM512 785.92l61.44-66.56-46.080-46.080c-10.24-15.36-35.84-15.36-46.080 0l-30.72 40.96 61.44 71.68zM501.76 560.64c5.12 0 5.12 0 10.24 0s10.24 0 15.36 0l66.56-204.8-81.92-76.8-76.8 76.8 66.56 204.8zM261.12 719.36l97.28-102.4 25.6 25.6 30.72-35.84-71.68-209.92c-15.36-35.84-5.12-81.92 20.48-112.64l148.48-148.48 148.48 148.48c30.72 30.72 40.96 71.68 25.6 107.52l-71.68 220.16 35.84 35.84 30.72-30.72 87.040 97.28c138.24-97.28 143.36-266.24 143.36-650.24h-798.72c0 389.12 5.12 558.080 148.48 655.36z" />
<glyph unicode="&#xe902;" glyph-name="icon-company" d="M896 724.48h-128v10.24c0 87.040-66.56 153.6-153.6 153.6h-204.8c-87.040 0-153.6-66.56-153.6-153.6v-10.24h-128c-56.32 0-102.4-46.080-102.4-102.4v-512c0-56.32 46.080-102.4 102.4-102.4h768c56.32 0 102.4 46.080 102.4 102.4v512c0 56.32-46.080 102.4-102.4 102.4zM358.4 734.72c0 30.72 20.48 51.2 51.2 51.2h204.8c30.72 0 51.2-20.48 51.2-51.2v-10.24h-307.2v10.24zM896 622.080v-158.72h-768v158.72h768zM435.2 360.96h158.72v-46.080h-153.6v46.080zM128 110.080v250.88h204.8v-46.080c0-56.32 40.96-102.4 92.16-102.4h179.2c51.2 0 92.16 46.080 92.16 102.4v46.080h204.8v-250.88h-773.12z" />
<glyph unicode="&#xe903;" glyph-name="icon-confirm" d="M880.64 719.36c-20.48 20.48-51.2 20.48-71.68 0l-414.72-414.72-179.2 179.2c-20.48 20.48-51.2 20.48-71.68 0s-20.48-51.2 0-71.68l250.88-250.88 486.4 486.4c20.48 20.48 20.48 51.2 0 71.68z" />
<glyph unicode="&#xe904;" glyph-name="icon-confirmation" d="M993.28 524.8l-404.48 404.48c-20.48 20.48-51.2 30.72-76.8 30.72s-56.32-10.24-76.8-30.72l-404.48-404.48c-40.96-40.96-40.96-107.52 0-148.48l404.48-404.48c20.48-25.6 51.2-35.84 76.8-35.84s56.32 10.24 76.8 30.72l404.48 404.48c40.96 40.96 40.96 112.64 0 153.6zM921.6 448l-409.6-409.6c0 0 0 0 0 0s0 0 0 0l-409.6 409.6c0 0 0 0 0 0l409.6 409.6c0 0 0 0 0 0s0 0 0 0l409.6-409.6c0 0 0 0 0 0s0 0 0 0zM512 668.16c-81.92 0-143.36-66.56-143.36-143.36 0-15.36 10.24-25.6 25.6-25.6s25.6 10.24 25.6 25.6c0 51.2 40.96 92.16 92.16 92.16s92.16-40.96 92.16-92.16-40.96-97.28-92.16-97.28h-25.6v-81.92c0-15.36 10.24-25.6 25.6-25.6s25.6 10.24 25.6 25.6v35.84c66.56 10.24 117.76 71.68 117.76 143.36 0 76.8-61.44 143.36-143.36 143.36zM537.6 253.44c0-14.138-11.462-25.6-25.6-25.6s-25.6 11.462-25.6 25.6c0 14.138 11.462 25.6 25.6 25.6s25.6-11.462 25.6-25.6z" />
<glyph unicode="&#xe905;" glyph-name="icon-copy" d="M532.48 744.96c-15.36 15.36-30.72 20.48-51.2 20.48h-363.52c-30.72 0-51.2-20.48-51.2-51.2v-727.040c0-30.72 20.48-51.2 51.2-51.2h563.2c30.72 0 51.2 20.48 51.2 51.2v527.36c0 20.48-10.24 40.96-20.48 51.2l-179.2 179.2zM629.76 38.4h-460.8v624.64h296.96v-163.84h168.96v-460.8zM512 401.92h-220.16c-30.72 0-51.2-20.48-51.2-51.2s20.48-51.2 51.2-51.2h220.16c30.72 0 51.2 20.48 51.2 51.2s-25.6 51.2-51.2 51.2zM512 232.96h-220.16c-30.72 0-51.2-20.48-51.2-51.2s20.48-51.2 51.2-51.2h220.16c30.72 0 51.2 20.48 51.2 51.2s-25.6 51.2-51.2 51.2zM906.24 960h-563.2c-30.72 0-51.2-20.48-51.2-51.2v-92.16h102.4v40.96h460.8v-629.76h-71.68v-102.4h122.88c30.72 0 51.2 20.48 51.2 51.2v732.16c0 30.72-20.48 51.2-51.2 51.2z" />
<glyph unicode="&#xe906;" glyph-name="icon-dashboard" d="M921.6 883.2h-819.2c-56.32 0-102.4-46.080-102.4-102.4v-665.6c0-56.32 46.080-102.4 102.4-102.4h819.2c56.32 0 102.4 46.080 102.4 102.4v665.6c0 56.32-46.080 102.4-102.4 102.4zM921.6 780.8v-117.76h-819.2v117.76h819.2zM389.12 325.12h-286.72v235.52h286.72v-235.52zM102.4 222.72h286.72v-107.52h-286.72v107.52zM491.52 115.2v445.44h430.080v-445.44h-430.080z" />
<glyph unicode="&#xe907;" glyph-name="icon-delete-purge" d="M972.8 816.64h-302.080c-5.12 76.8-76.8 143.36-158.72 143.36s-153.6-66.56-158.72-143.36h-302.080c-30.72 0-51.2-20.48-51.2-51.2s20.48-51.2 51.2-51.2h921.6c30.72 0 51.2 20.48 51.2 51.2s-20.48 51.2-51.2 51.2zM512 857.6c25.6 0 51.2-20.48 56.32-40.96h-112.64c5.12 20.48 30.72 40.96 56.32 40.96zM870.4 637.44c-30.72 0-51.2-20.48-51.2-51.2v-496.64c0-30.72-20.48-51.2-51.2-51.2h-512c-30.72 0-51.2 20.48-51.2 51.2v496.64c0 30.72-20.48 51.2-51.2 51.2s-51.2-20.48-51.2-51.2v-496.64c0-87.040 66.56-153.6 153.6-153.6h512c87.040 0 153.6 66.56 153.6 153.6v496.64c0 25.6-25.6 51.2-51.2 51.2zM455.68 171.52v409.6c0 30.72-20.48 51.2-51.2 51.2s-51.2-20.48-51.2-51.2v-409.6c0-30.72 20.48-51.2 51.2-51.2s51.2 25.6 51.2 51.2zM670.72 171.52v409.6c0 30.72-20.48 51.2-51.2 51.2s-51.2-20.48-51.2-51.2v-409.6c0-30.72 20.48-51.2 51.2-51.2s51.2 25.6 51.2 51.2z" />
<glyph unicode="&#xe908;" glyph-name="icon-download" d="M844.8 842.24c-20.48 20.48-51.2 15.36-71.68-5.12s-15.36-56.32 5.12-71.68c87.040-76.8 138.24-184.32 143.36-302.080 5.12-220.16-179.2-414.72-399.36-419.84-112.64 0-215.040 40.96-296.96 117.76s-122.88 184.32-122.88 291.84c0 179.2 122.88 343.040 291.84 394.24 15.36 5.12 30.72 0 46.080-10.24 15.36-5.12 20.48-20.48 20.48-40.96v-373.76l-87.040 92.16c-20.48 20.48-51.2 20.48-71.68 0s-20.48-51.2 0-71.68l143.36-143.36c15.36-15.36 35.84-25.6 61.44-25.6 5.12 0 5.12 0 10.24 0s5.12 0 10.24 0c20.48 0 46.080 10.24 61.44 25.6l143.36 143.36c20.48 20.48 20.48 51.2 0 71.68s-51.2 20.48-71.68 0l-97.28-87.040v368.64c0 51.2-20.48 92.16-61.44 122.88s-87.040 40.96-133.12 25.6c-220.16-61.44-368.64-266.24-368.64-491.52 0-138.24 56.32-271.36 153.6-368.64 97.28-92.16 220.16-143.36 358.4-143.36 5.12 0 10.24 0 15.36 0 276.48 10.24 501.76 245.76 496.64 522.24-5.12 148.48-66.56 286.72-179.2 378.88z" />
<glyph unicode="&#xe909;" glyph-name="icon-email" d="M773.12 84.48h-522.24c-87.040 0-153.6 66.56-153.6 153.6v419.84c0 87.040 66.56 153.6 153.6 153.6h522.24c87.040 0 153.6-66.56 153.6-153.6v-419.84c0-87.040-66.56-153.6-153.6-153.6zM250.88 709.12c-30.72 0-51.2-20.48-51.2-51.2v-419.84c0-30.72 20.48-51.2 51.2-51.2h522.24c30.72 0 51.2 20.48 51.2 51.2v419.84c0 30.72-20.48 51.2-51.2 51.2h-522.24zM512 391.68c-40.96 0-76.8 15.36-107.52 46.080l-153.6 153.6c-20.48 20.48-20.48 51.2 0 71.68s51.2 20.48 71.68 0l153.6-153.6c20.48-20.48 51.2-20.48 71.68 0l153.6 153.6c20.48 20.48 51.2 20.48 71.68 0s20.48-51.2 0-71.68l-153.6-153.6c-30.72-30.72-66.56-46.080-107.52-46.080z" />
<glyph unicode="&#xe90a;" glyph-name="icon-equipment" d="M983.040 294.4l-112.64 112.64c0 10.24 5.12 15.36 5.12 25.6 0 71.68-40.96 133.12-102.4 163.84 0 5.12-5.12 10.24-10.24 15.36l-322.56 317.44c-20.48 20.48-51.2 20.48-71.68 0l-266.24-266.24v148.48c0 30.72-20.48 51.2-51.2 51.2s-51.2-20.48-51.2-51.2v-752.64c0-30.72 20.48-51.2 51.2-51.2s51.2 20.48 51.2 51.2v92.16l302.080 302.080 71.68-71.68-76.8-87.040c-25.6-25.6-40.96-66.56-40.96-102.4 0-40.96 15.36-76.8 40.96-102.4l128-128c10.24-10.24 25.6-15.36 35.84-15.36s25.6 5.12 35.84 15.36c20.48 20.48 20.48 51.2 0 71.68l-128 128c-10.24 10.24-15.36 20.48-15.36 30.72s5.12 20.48 10.24 30.72l87.040 87.040c30.72-35.84 76.8-56.32 133.12-56.32 51.2 0 97.28 20.48 133.12 56.32l87.040-87.040c10.24-10.24 10.24-20.48 10.24-30.72s-5.12-20.48-10.24-30.72l-122.88-122.88c-20.48-20.48-20.48-51.2 0-71.68 10.24-10.24 25.6-15.36 35.84-15.36s25.6 5.12 35.84 15.36l128 128c25.6 25.6 40.96 66.56 40.96 102.4s-15.36 71.68-40.96 97.28zM517.12 488.96l-220.16 220.16 112.64 112.64 215.040-215.040c-51.2-20.48-92.16-66.56-107.52-117.76zM102.4 294.4v225.28l117.76 117.76 112.64-112.64-230.4-230.4zM691.2 360.96c-40.96 0-76.8 35.84-76.8 76.8s35.84 76.8 76.8 76.8 76.8-35.84 76.8-76.8c0-40.96-35.84-76.8-76.8-76.8z" />
<glyph unicode="&#xe90b;" glyph-name="icon-export" d="M865.28 821.76c-204.8 189.44-532.48 179.2-721.92-20.48-102.4-107.52-148.48-245.76-138.24-394.24 0-30.72 25.6-51.2 56.32-46.080 30.72 0 51.2 25.6 46.080 56.32-15.36 117.76 25.6 230.4 107.52 312.32 153.6 158.72 414.72 168.96 578.56 15.36 81.92-76.8 128-179.2 128-291.84s-40.96-215.040-117.76-296.96c-128-128-327.68-158.72-486.4-71.68-15.36 5.12-25.6 20.48-25.6 35.84s5.12 30.72 15.36 46.080l261.12 261.12v-122.88c0-30.72 20.48-51.2 51.2-51.2s51.2 20.48 51.2 51.2v204.8c0 25.6-10.24 46.080-25.6 61.44 0 0-5.12 5.12-5.12 5.12s-5.12 5.12-5.12 5.12c-15.36 15.36-40.96 25.6-61.44 25.6h-204.8c-30.72 0-51.2-20.48-51.2-51.2s20.48-51.2 51.2-51.2h122.88l-256-261.12c-35.84-35.84-51.2-81.92-40.96-133.12 5.12-46.080 35.84-87.040 76.8-112.64 71.68-40.96 153.6-61.44 240.64-61.44 133.12 0 266.24 51.2 363.52 148.48s153.6 230.4 148.48 368.64c0 143.36-61.44 271.36-158.72 368.64z" />
<glyph unicode="&#xe90c;" glyph-name="icon-factory" d="M983.040 69.12v327.68c0 56.32-46.080 102.4-102.4 102.4h-460.8l-10.24 158.72c20.48 5.12 30.72 25.6 30.72 46.080 0 30.72-20.48 51.2-51.2 51.2h-245.76c-30.72 0-51.2-20.48-51.2-51.2 0-20.48 15.36-40.96 30.72-46.080l-46.080-588.8h-25.6c-30.72 0-51.2-20.48-51.2-51.2s20.48-51.2 51.2-51.2h921.6c30.72 0 51.2 20.48 51.2 51.2 0 25.6-20.48 46.080-40.96 51.2zM880.64 284.16h-168.96v112.64h168.96v-112.64zM604.16 391.68v-112.64h-163.84l-10.24 112.64h174.080zM225.28 652.8h81.92l40.96-583.68h-163.84l40.96 583.68zM445.44 181.76h430.080v-112.64h-419.84l-10.24 112.64zM307.2 796.16c35.84 46.080 97.28 30.72 209.92-20.48 61.44-25.6 138.24-61.44 209.92-61.44 56.32 0 112.64 20.48 158.72 81.92 15.36 20.48 10.24 56.32-10.24 71.68s-56.32 10.24-71.68-10.24c-51.2-66.56-117.76-46.080-245.76 10.24-107.52 51.2-245.76 112.64-332.8-10.24-15.36-20.48-10.24-51.2 10.24-71.68 20.48-15.36 56.32-10.24 71.68 10.24z" />
<glyph unicode="&#xe90d;" glyph-name="icon-history" d="M1024 913.92c-5.12 25.6-30.72 46.080-56.32 46.080h-665.6c-87.040 0-158.72-71.68-158.72-158.72v-578.56h-51.2c-51.2 0-92.16-40.96-92.16-92.16v-35.84c0-87.040 71.68-158.72 158.72-158.72h645.12c87.040 0 158.72 71.68 158.72 158.72v706.56c0 20.48 10.24 40.96 30.72 51.2s35.84 35.84 30.72 61.44zM158.72 38.4c-30.72 0-56.32 25.6-56.32 56.32v25.6h542.72v-25.6c0-20.48 5.12-35.84 10.24-56.32h-496.64zM860.16 801.28v-706.56c0-30.72-25.6-56.32-56.32-56.32s-56.32 25.6-56.32 56.32v35.84c0 51.2-40.96 92.16-92.16 92.16h-409.6v578.56c0 30.72 25.6 56.32 56.32 56.32h568.32c-10.24-20.48-10.24-35.84-10.24-56.32zM389.12 570.88h327.68c30.72 0 51.2 20.48 51.2 51.2s-20.48 51.2-51.2 51.2h-327.68c-30.72 0-51.2-20.48-51.2-51.2s20.48-51.2 51.2-51.2zM389.12 381.44h327.68c30.72 0 51.2 20.48 51.2 51.2s-20.48 51.2-51.2 51.2h-327.68c-30.72 0-51.2-20.48-51.2-51.2s20.48-51.2 51.2-51.2z" />
<glyph unicode="&#xe90e;" glyph-name="icon-import" d="M179.2 48.64c20.48-20.48 51.2-15.36 71.68 5.12s15.36 56.32-5.12 71.68c-87.040 76.8-138.24 184.32-143.36 302.080-5.12 220.16 179.2 414.72 399.36 419.84 112.64 0 215.040-40.96 296.96-117.76s122.88-184.32 122.88-291.84c0-179.2-122.88-343.040-291.84-394.24-15.36-5.12-30.72 0-46.080 10.24-15.36 5.12-20.48 20.48-20.48 40.96v373.76l87.040-92.16c20.48-20.48 51.2-20.48 71.68 0s20.48 51.2 0 71.68l-143.36 143.36c-15.36 15.36-35.84 25.6-61.44 25.6-5.12 0-5.12 0-10.24 0s-5.12 0-10.24 0c-20.48 0-46.080-10.24-61.44-25.6l-143.36-143.36c-20.48-20.48-20.48-51.2 0-71.68s51.2-20.48 71.68 0l97.28 87.040v-368.64c0-51.2 20.48-92.16 61.44-122.88s87.040-40.96 133.12-25.6c220.16 61.44 368.64 266.24 368.64 491.52 0 138.24-56.32 271.36-153.6 368.64-97.28 92.16-220.16 143.36-358.4 143.36-5.12 0-10.24 0-15.36 0-276.48-10.24-501.76-245.76-496.64-522.24 5.12-148.48 66.56-286.72 179.2-378.88z" />
<glyph unicode="&#xe90f;" glyph-name="icon-iot" d="M921.6 391.68h-819.2c-56.32 0-102.4-46.080-102.4-102.4v-194.56c0-56.32 46.080-102.4 102.4-102.4h819.2c56.32 0 102.4 46.080 102.4 102.4v194.56c0 56.32-46.080 102.4-102.4 102.4zM296.96 94.72h-194.56v194.56h194.56v-194.56zM921.6 94.72h-522.24v194.56h522.24v-194.56zM512 140.8h302.080c30.72 0 51.2 20.48 51.2 51.2s-20.48 51.2-51.2 51.2h-302.080c-30.72 0-51.2-20.48-51.2-51.2s20.48-51.2 51.2-51.2zM348.16 529.92c-20.48-20.48-20.48-51.2 0-71.68s51.2-20.48 71.68 0c51.2 51.2 133.12 51.2 179.2 0 10.24-10.24 25.6-15.36 35.84-15.36s30.72 5.12 40.96 10.24c20.48 20.48 20.48 51.2 0 71.68-92.16 92.16-235.52 92.16-327.68 5.12zM747.52 550.4c15.36 0 25.6 5.12 35.84 15.36 20.48 20.48 20.48 51.2 0 71.68-148.48 148.48-394.24 148.48-542.72 0-20.48-20.48-20.48-51.2 0-71.68s51.2-20.48 71.68 0c107.52 107.52 286.72 107.52 399.36 0 10.24-10.24 20.48-15.36 35.84-15.36zM204.8 673.28c168.96 168.96 445.44 168.96 614.4 0 10.24-10.24 25.6-15.36 35.84-15.36s25.6 5.12 35.84 15.36c20.48 20.48 20.48 51.2 0 71.68-102.4 102.4-235.52 158.72-378.88 158.72s-276.48-56.32-378.88-158.72c-20.48-20.48-20.48-51.2 0-71.68s51.2-20.48 71.68 0z" />
<glyph unicode="&#xe910;" glyph-name="icon-key" d="M614.4 468.48c87.040 122.88 76.8 291.84-35.84 399.36-56.32 61.44-138.24 92.16-215.040 92.16-81.92 0-158.72-30.72-220.16-92.16-122.88-122.88-122.88-317.44 0-440.32 61.44-61.44 138.24-92.16 220.16-92.16 66.56 0 128 20.48 179.2 61.44l168.96-168.96-92.16-87.040c-20.48-20.48-20.48-51.2 0-71.68 10.24-10.24 25.6-15.36 35.84-15.36 15.36 0 25.6 5.12 35.84 15.36l92.16 92.16 40.96-40.96-92.16-92.16c-20.48-20.48-20.48-51.2 0-71.68 10.24-10.24 25.6-15.36 35.84-15.36 15.36 0 25.6 5.12 35.84 15.36l163.84 163.84-353.28 348.16zM363.52 442.88c-56.32 0-107.52 20.48-148.48 56.32-40.96 40.96-61.44 92.16-61.44 148.48s20.48 107.52 61.44 148.48c40.96 40.96 92.16 61.44 148.48 61.44s107.52-20.48 148.48-61.44c35.84-40.96 56.32-92.16 56.32-148.48s-20.48-107.52-56.32-148.48c-40.96-35.84-92.16-56.32-148.48-56.32z" />
<glyph unicode="&#xe911;" glyph-name="icon-launch" d="M742.4 903.68c-25.6 15.36-56.32 5.12-66.56-20.48-15.36-25.6-5.12-56.32 20.48-66.56 138.24-76.8 225.28-215.040 225.28-368.64 0-225.28-184.32-409.6-409.6-409.6s-409.6 184.32-409.6 409.6c0 153.6 87.040 296.96 225.28 363.52 25.6 10.24 35.84 40.96 20.48 66.56-5.12 25.6-35.84 35.84-61.44 25.6-179.2-87.040-286.72-261.12-286.72-455.68 0-281.6 230.4-512 512-512s512 230.4 512 512c0 189.44-107.52 363.52-281.6 455.68zM512 371.2c30.72 0 51.2 20.48 51.2 51.2v486.4c0 30.72-20.48 51.2-51.2 51.2s-51.2-20.48-51.2-51.2v-486.4c0-30.72 20.48-51.2 51.2-51.2z" />
<glyph unicode="&#xe912;" glyph-name="icon-login" d="M547.84 335.36c-20.48-20.48-20.48-51.2 0-71.68 10.24-10.24 25.6-15.36 35.84-15.36s25.6 5.12 35.84 15.36l117.76 117.76c35.84 35.84 35.84 92.16 0 128l-117.76 117.76c-20.48 20.48-51.2 20.48-71.68 0s-20.48-51.2 0-71.68l61.44-56.32h-558.080c-30.72 0-51.2-20.48-51.2-51.2s20.48-51.2 51.2-51.2h558.080l-61.44-61.44zM921.6 908.8h-445.44c-56.32 0-102.4-46.080-102.4-102.4v-204.8h102.4v204.8h445.44v-716.8h-445.44v204.8h-102.4v-204.8c0-56.32 46.080-102.4 102.4-102.4h445.44c56.32 0 102.4 46.080 102.4 102.4v716.8c0 56.32-46.080 102.4-102.4 102.4z" />
<glyph unicode="&#xe913;" glyph-name="icon-log-in-as-SA" d="M921.6 960h-445.44c-56.32 0-102.4-46.080-102.4-102.4v-133.12c35.84-5.12 71.68-15.36 102.4-30.72v163.84h445.44v-716.8h-194.56c15.36-25.6 30.72-51.2 40.96-81.92 0-5.12 0-10.24 5.12-20.48h153.6c56.32 0 102.4 46.080 102.4 102.4v716.8c-5.12 56.32-51.2 102.4-107.52 102.4zM824.32 560.64l-117.76 117.76c-20.48 20.48-51.2 20.48-71.68 0s-20.48-51.2 0-71.68l61.44-56.32h-194.56c-40.96 46.080-102.4 76.8-168.96 76.8-122.88 0-220.16-97.28-220.16-220.16 0-71.68 35.84-138.24 92.16-179.2-97.28-35.84-174.080-112.64-204.8-204.8-10.24-40.96 20.48-87.040 71.68-87.040 97.28 0 199.68 0 302.080 0 87.040 0 163.84 0 230.4 0 46.080 0 81.92 46.080 66.56 92.16-30.72 92.16-107.52 168.96-204.8 204.8 56.32 40.96 92.16 102.4 92.16 179.2 0 15.36 0 25.6-5.12 40.96h143.36l-61.44-61.44c-20.48-20.48-20.48-51.2 0-71.68 10.24-10.24 25.6-15.36 35.84-15.36s25.6 5.12 35.84 15.36l117.76 117.76c35.84 30.72 35.84 92.16 0 122.88zM332.8 524.8c66.56 0 117.76-51.2 117.76-117.76s-51.2-117.76-117.76-117.76-117.76 51.2-117.76 117.76c0 66.56 56.32 117.76 117.76 117.76zM547.84 38.4c-51.2 0-112.64 0-179.2 0-81.92 0-168.96 0-250.88 0 40.96 66.56 122.88 112.64 215.040 112.64s174.080-46.080 215.040-112.64z" />
<glyph unicode="&#xe914;" glyph-name="icon-logout" d="M998.4 509.44l-117.76 117.76c-20.48 20.48-51.2 20.48-71.68 0s-20.48-51.2 0-71.68l56.32-56.32h-558.080c-30.72 0-51.2-20.48-51.2-51.2s20.48-51.2 51.2-51.2h558.080l-61.44-61.44c-20.48-20.48-20.48-51.2 0-71.68 10.24-10.24 25.6-15.36 35.84-15.36s25.6 5.12 35.84 15.36l117.76 117.76c40.96 35.84 40.96 97.28 5.12 128zM547.84 89.6h-445.44v716.8h445.44v-204.8h102.4v204.8c0 56.32-46.080 102.4-102.4 102.4h-445.44c-56.32 0-102.4-46.080-102.4-102.4v-716.8c0-56.32 46.080-102.4 102.4-102.4h445.44c56.32 0 102.4 46.080 102.4 102.4v204.8h-102.4v-204.8z" />
<glyph unicode="&#xe915;" glyph-name="icon-menu" d="M972.8 698.88h-921.6c-30.72 0-51.2 20.48-51.2 51.2s20.48 51.2 51.2 51.2h921.6c30.72 0 51.2-20.48 51.2-51.2s-20.48-51.2-51.2-51.2zM972.8 396.8h-921.6c-30.72 0-51.2 20.48-51.2 51.2s20.48 51.2 51.2 51.2h921.6c30.72 0 51.2-20.48 51.2-51.2s-20.48-51.2-51.2-51.2zM972.8 94.72h-921.6c-30.72 0-51.2 20.48-51.2 51.2s20.48 51.2 51.2 51.2h921.6c30.72 0 51.2-20.48 51.2-51.2s-20.48-51.2-51.2-51.2z" />
<glyph unicode="&#xe916;" glyph-name="icon-monitor" d="M998.4 509.44c-87.040 97.28-271.36 281.6-486.4 281.6s-404.48-184.32-486.4-281.6c-30.72-35.84-30.72-87.040 0-122.88 87.040-97.28 271.36-281.6 486.4-281.6s404.48 184.32 486.4 281.6c35.84 35.84 35.84 87.040 0 122.88zM512 304.64c-81.92 0-143.36 66.56-143.36 143.36 0 81.92 66.56 143.36 143.36 143.36 81.92 0 143.36-66.56 143.36-143.36 0-81.92-61.44-143.36-143.36-143.36zM107.52 448c51.2 61.44 168.96 174.080 296.96 220.16-81.92-40.96-138.24-122.88-138.24-220.16s56.32-179.2 138.24-220.16c-133.12 46.080-245.76 158.72-296.96 220.16zM619.52 227.84c81.92 40.96 138.24 122.88 138.24 220.16s-56.32 179.2-138.24 220.16c133.12-46.080 245.76-158.72 296.96-220.16-51.2-61.44-163.84-174.080-296.96-220.16z" />
<glyph unicode="&#xe917;" glyph-name="icon-next" d="M1024 448c0 0 0 0 0 0 0 40.96-15.36 81.92-46.080 117.76l-348.16 348.16c-20.48 20.48-51.2 20.48-71.68 0s-20.48-51.2 0-71.68l337.92-343.040h-844.8c-30.72 0-51.2-20.48-51.2-51.2s20.48-51.2 51.2-51.2h844.8l-337.92-337.92c-20.48-20.48-20.48-51.2 0-71.68 10.24-10.24 25.6-15.36 35.84-15.36s25.6 5.12 35.84 15.36l348.16 348.16c30.72 30.72 46.080 71.68 46.080 112.64 0 0 0 0 0 0z" />
<glyph unicode="&#xe918;" glyph-name="icon-password" d="M773.12 663.040h-71.68v107.52c0 102.4-87.040 189.44-189.44 189.44s-189.44-87.040-189.44-189.44v-107.52h-71.68c-87.040 0-153.6-66.56-153.6-153.6v-419.84c0-87.040 66.56-153.6 153.6-153.6h527.36c87.040 0 153.6 66.56 153.6 153.6v419.84c-5.12 87.040-71.68 153.6-158.72 153.6zM424.96 770.56c0 46.080 40.96 87.040 87.040 87.040s87.040-40.96 87.040-87.040v-107.52h-174.080v107.52zM824.32 89.6c0-30.72-20.48-51.2-51.2-51.2h-522.24c-30.72 0-51.2 20.48-51.2 51.2v419.84c0 30.72 20.48 51.2 51.2 51.2h527.36c30.72 0 51.2-20.48 51.2-51.2v-419.84zM512 468.48c-66.56 0-117.76-51.2-117.76-117.76 0-46.080 25.6-87.040 66.56-102.4v-61.44c0-30.72 20.48-51.2 51.2-51.2s51.2 20.48 51.2 51.2v61.44c40.96 20.48 66.56 56.32 66.56 102.4 0 66.56-51.2 117.76-117.76 117.76z" />
<glyph unicode="&#xe919;" glyph-name="icon-plus" d="M844.8 499.2h-281.6v281.6c0 30.72-20.48 51.2-51.2 51.2s-51.2-20.48-51.2-51.2v-281.6h-281.6c-30.72 0-51.2-20.48-51.2-51.2s20.48-51.2 51.2-51.2h281.6v-281.6c0-30.72 20.48-51.2 51.2-51.2s51.2 20.48 51.2 51.2v281.6h281.6c30.72 0 51.2 20.48 51.2 51.2s-20.48 51.2-51.2 51.2z" />
<glyph unicode="&#xe91a;" glyph-name="icon-previous" d="M0 448c0 0 0 0 0 0 0-40.96 15.36-81.92 46.080-117.76l348.16-348.16c20.48-20.48 51.2-20.48 71.68 0s20.48 51.2 0 71.68l-337.92 343.040h844.8c30.72 0 51.2 20.48 51.2 51.2s-20.48 51.2-51.2 51.2h-844.8l337.92 337.92c20.48 20.48 20.48 51.2 0 71.68-5.12 15.36-20.48 20.48-35.84 20.48s-25.6-5.12-35.84-15.36l-348.16-348.16c-30.72-35.84-46.080-76.8-46.080-117.76 0 0 0 0 0 0z" />
<glyph unicode="&#xe91b;" glyph-name="icon-refresh" d="M732.16 227.84c-61.44-61.44-138.24-92.16-220.16-92.16s-163.84 30.72-220.16 92.16c-35.84 35.84-56.32 71.68-71.68 117.76l20.48-15.36c20.48-15.36 51.2-10.24 66.56 15.36s10.24 56.32-15.36 71.68l-102.4 71.68c-20.48 15.36-35.84 15.36-56.32 15.36-20.48-5.12-35.84-15.36-46.080-30.72l-76.8-107.52c-15.36-25.6-10.24-56.32 10.24-71.68 10.24-5.12 20.48-10.24 30.72-10.24 15.36 0 30.72 10.24 40.96 20.48l20.48 30.72c20.48-66.56 56.32-128 107.52-179.2 76.8-76.8 184.32-122.88 291.84-122.88 112.64 0 215.040 40.96 291.84 122.88 20.48 20.48 20.48 51.2 0 71.68s-51.2 20.48-71.68 0zM1003.52 601.6c-25.6 15.36-56.32 10.24-71.68-15.36l-20.48-30.72c-20.48 66.56-56.32 128-107.52 179.2-163.84 163.84-424.96 163.84-583.68 0-20.48-20.48-20.48-51.2 0-71.68s51.2-20.48 71.68 0c122.88 122.88 317.44 122.88 440.32 0 35.84-25.6 56.32-66.56 71.68-112.64l-20.48 15.36c-20.48 15.36-51.2 10.24-66.56-15.36s-10.24-56.32 15.36-71.68l107.52-76.8c10.24-10.24 25.6-15.36 40.96-15.36 5.12 0 10.24 0 15.36 0 20.48 5.12 35.84 15.36 46.080 30.72l76.8 107.52c10.24 30.72 5.12 61.44-15.36 76.8z" />
<glyph unicode="&#xe91c;" glyph-name="icon-report" d="M353.28 535.040h235.52c30.72 0 51.2 20.48 51.2 51.2s-20.48 51.2-51.2 51.2h-235.52c-30.72 0-51.2-20.48-51.2-51.2s25.6-51.2 51.2-51.2zM645.12 432.64c0 30.72-20.48 51.2-51.2 51.2h-240.64c-30.72 0-51.2-20.48-51.2-51.2s20.48-51.2 51.2-51.2h235.52c30.72 0 56.32 20.48 56.32 51.2zM691.2 366.080l-117.76-122.88-40.96 40.96c-20.48 20.48-51.2 20.48-71.68 0s-20.48-51.2 0-71.68l112.64-112.64 189.44 189.44c20.48 20.48 20.48 51.2 0 71.68s-51.2 25.6-71.68 5.12zM829.44 883.2h-46.080v25.6c0 30.72-20.48 51.2-51.2 51.2h-435.2c-30.72 0-51.2-20.48-51.2-51.2v-25.6h-51.2c-56.32 0-102.4-46.080-102.4-102.4v-742.4c0-56.32 46.080-102.4 102.4-102.4h634.88c56.32 0 102.4 46.080 102.4 102.4v742.4c0 56.32-46.080 102.4-102.4 102.4zM680.96 816.64h-332.8v40.96h332.8v-40.96zM829.44 38.4h-634.88v742.4h46.080v-15.36c0-30.72 20.48-51.2 51.2-51.2h435.2c30.72 0 51.2 20.48 51.2 51.2v15.36h46.080v-742.4z" />
<glyph unicode="&#xe91d;" glyph-name="icon-reset-pw" d="M394.24 417.28c0-46.080 25.6-87.040 66.56-102.4v-61.44c0-30.72 20.48-51.2 51.2-51.2s51.2 20.48 51.2 51.2v61.44c40.96 20.48 66.56 56.32 66.56 102.4 0 66.56-51.2 117.76-117.76 117.76s-117.76-51.2-117.76-117.76zM834.56 719.36c-20.48 20.48-51.2 20.48-71.68 0s-20.48-51.2 0-71.68c66.56-66.56 102.4-158.72 102.4-250.88 0-97.28-35.84-184.32-102.4-250.88-138.24-138.24-363.52-138.24-501.76 0-66.56 66.56-102.4 158.72-102.4 250.88 0 97.28 35.84 184.32 102.4 250.88 40.96 40.96 97.28 76.8 158.72 92.16l-30.72-46.080c-20.48-25.6-10.24-56.32 10.24-71.68 10.24-5.12 20.48-10.24 30.72-10.24 15.36 0 30.72 10.24 40.96 20.48l87.040 122.88c10.24 15.36 15.36 35.84 10.24 56.32s-15.36 35.84-30.72 51.2l-122.88 87.040c-25.6 15.36-56.32 10.24-71.68-10.24-15.36-25.6-10.24-56.32 10.24-71.68l40.96-25.6c-76.8-25.6-148.48-66.56-204.8-122.88-87.040-87.040-133.12-199.68-133.12-322.56s46.080-235.52 133.12-322.56c87.040-87.040 204.8-133.12 322.56-133.12s235.52 46.080 322.56 133.12c87.040 87.040 133.12 199.68 133.12 322.56s-46.080 235.52-133.12 322.56z" />
<glyph unicode="&#xe91e;" glyph-name="icon-reset" d="M834.56 719.36c-20.48 20.48-51.2 20.48-71.68 0s-20.48-51.2 0-71.68c66.56-66.56 102.4-158.72 102.4-250.88 0-194.56-158.72-353.28-353.28-353.28s-353.28 158.72-353.28 353.28c0 163.84 112.64 302.080 261.12 343.040l-30.72-46.080c-20.48-25.6-10.24-56.32 10.24-71.68 10.24-5.12 20.48-10.24 30.72-10.24 15.36 0 30.72 5.12 40.96 20.48l87.040 122.88c10.24 15.36 15.36 35.84 10.24 56.32s-15.36 35.84-30.72 51.2l-122.88 87.040c-25.6 15.36-56.32 10.24-71.68-10.24-15.36-25.6-10.24-56.32 10.24-71.68l40.96-25.6c-194.56-51.2-343.040-230.4-343.040-440.32 0-250.88 204.8-455.68 455.68-455.68s455.68 204.8 455.68 455.68c5.12 117.76-40.96 230.4-128 317.44z" />
<glyph unicode="&#xe91f;" glyph-name="icon-restart" d="M517.12 837.12c0-5.12 5.12-5.12 5.12-10.24 0 0 5.12-5.12 5.12-5.12 5.12 0 5.12-5.12 10.24-5.12s5.12-5.12 10.24-5.12c0-5.12 5.12-5.12 5.12-5.12 5.12 0 10.24 0 10.24 0 5.12 0 5.12 0 10.24 0s5.12 0 10.24 5.12c5.12 0 5.12 0 10.24 5.12 5.12 0 5.12 5.12 5.12 5.12 10.24 5.12 15.36 20.48 15.36 35.84s-5.12 25.6-15.36 35.84c-20.48 20.48-51.2 20.48-71.68 0-10.24-10.24-15.36-25.6-15.36-35.84 0-5.12 0-5.12 0-10.24 5.12-5.12 5.12-10.24 5.12-10.24zM332.8 760.32c5.12-5.12 5.12-5.12 10.24-5.12s5.12 0 10.24-5.12c5.12 0 5.12 0 10.24 0 15.36 0 25.6 5.12 35.84 15.36s15.36 20.48 15.36 35.84c0 15.36-5.12 25.6-15.36 35.84-20.48 20.48-56.32 20.48-71.68 0 0-5.12-5.12-5.12-5.12-10.24s-5.12-5.12-5.12-10.24c0-5.12 0-5.12-5.12-10.24 0-5.12 0-5.12 0-10.24 0-15.36 5.12-25.6 15.36-35.84 0 0 0 0 5.12 0zM209.92 601.6c5.12 0 5.12 0 10.24 0s5.12 0 10.24 5.12c5.12 0 5.12 5.12 10.24 5.12 0 0 5.12 5.12 5.12 5.12 5.12 5.12 10.24 10.24 15.36 15.36 0 5.12 5.12 15.36 5.12 20.48s0 15.36-5.12 20.48c-5.12 5.12-10.24 10.24-10.24 15.36 0 0-5.12 5.12-5.12 5.12-5.12 0-5.12 5.12-10.24 5.12s-5.12 0-10.24 0c-20.48 5.12-35.84 0-51.2-10.24-5.12-10.24-15.36-25.6-15.36-35.84 0-15.36 5.12-25.6 15.36-35.84s25.6-15.36 35.84-15.36zM962.56 227.84c35.84 66.56 56.32 143.36 56.32 220.16 0 0 0 0 0 0 0 5.12 0 15.36-5.12 20.48 0 0 0 0 0 0-5.12 5.12-5.12 10.24-10.24 15.36 0 0 0 0 0 0s-5.12 5.12-10.24 5.12c0 0-5.12 5.12-5.12 5.12s0 0-5.12 0-5.12 0-10.24 5.12c0 0-5.12 0-5.12 0s0 0-5.12 0c0 0 0 0 0 0-5.12 0-10.24 0-15.36-5.12-5.12 0-10.24-5.12-15.36-10.24 0 0-5.12 0-5.12-5.12 0 0 0 0 0-5.12-5.12-5.12-5.12-10.24-10.24-15.36 0 0 0 0 0 0s0-5.12 0-5.12 0-10.24 0-10.24c0-194.56-158.72-353.28-353.28-353.28-163.84 0-302.080 112.64-343.040 261.12l46.080-30.72c25.6-15.36 56.32-10.24 71.68 15.36s10.24 56.32-15.36 71.68l-122.88 87.040c-15.36 10.24-35.84 15.36-56.32 10.24s-35.84-15.36-51.2-30.72l-87.040-122.88c-10.24-25.6-5.12-56.32 15.36-71.68 10.24-5.12 20.48-10.24 30.72-10.24 15.36 0 30.72 10.24 40.96 20.48l30.72 40.96c51.2-194.56 230.4-343.040 440.32-343.040 0 0 0 0 0 0s0 0 0 0c174.080 5.12 322.56 97.28 399.36 240.64 0-5.12 0-5.12 0 0 0 0 0 0 0 0zM916.48 601.6c15.36 0 25.6 5.12 35.84 15.36s15.36 20.48 15.36 35.84c0 15.36-5.12 25.6-15.36 35.84-20.48 20.48-51.2 20.48-71.68 0-10.24-10.24-15.36-25.6-15.36-35.84 0-15.36 5.12-25.6 15.36-35.84s25.6-15.36 35.84-15.36zM732.16 765.44c10.24-10.24 20.48-15.36 35.84-15.36s25.6 5.12 35.84 15.36c5.12 5.12 10.24 10.24 10.24 15.36 5.12 5.12 5.12 15.36 5.12 20.48 0 15.36-5.12 25.6-15.36 35.84-5.12 5.12-10.24 10.24-15.36 10.24-10.24 5.12-25.6 5.12-40.96 0-5.12 0-10.24-5.12-15.36-10.24-10.24-10.24-15.36-20.48-15.36-35.84 0-5.12 0-15.36 5.12-20.48 0-5.12 5.12-10.24 10.24-15.36z" />
<glyph unicode="&#xe920;" glyph-name="icon-save" d="M993.28 785.92l-143.36 143.36c-20.48 20.48-46.080 30.72-71.68 30.72h-675.84c-56.32 0-102.4-46.080-102.4-102.4v-819.2c0-56.32 46.080-102.4 102.4-102.4h819.2c56.32 0 102.4 46.080 102.4 102.4v675.84c0 25.6-10.24 51.2-30.72 71.68zM588.8 857.6v-286.72h-286.72v286.72h286.72zM921.6 38.4h-819.2v819.2h97.28v-286.72c0-56.32 46.080-102.4 102.4-102.4h286.72c56.32 0 102.4 46.080 102.4 102.4v286.72h81.92l148.48-143.36v-675.84zM250.88 371.2c-30.72 0-51.2-20.48-51.2-51.2s20.48-51.2 51.2-51.2h522.24c30.72 0 51.2 20.48 51.2 51.2s-20.48 51.2-51.2 51.2h-522.24zM773.12 232.96h-522.24c-30.72 0-51.2-20.48-51.2-51.2s20.48-51.2 51.2-51.2h522.24c30.72 0 51.2 20.48 51.2 51.2s-25.6 51.2-51.2 51.2z" />
<glyph unicode="&#xe921;" glyph-name="icon-save-as-new" d="M993.28 785.92l-143.36 143.36c-20.48 20.48-46.080 30.72-71.68 30.72h-675.84c-56.32 0-102.4-46.080-102.4-102.4v-819.2c0-56.32 46.080-102.4 102.4-102.4h819.2c56.32 0 102.4 46.080 102.4 102.4v675.84c0 25.6-10.24 51.2-30.72 71.68zM921.6 38.4h-819.2v819.2h675.84l143.36-143.36v-675.84zM563.2 499.2v209.92c0 30.72-20.48 51.2-51.2 51.2s-51.2-20.48-51.2-51.2v-209.92h-209.92c-30.72 0-51.2-20.48-51.2-51.2s20.48-51.2 51.2-51.2h209.92v-209.92c0-30.72 20.48-51.2 51.2-51.2s51.2 20.48 51.2 51.2v209.92h209.92c30.72 0 51.2 20.48 51.2 51.2s-20.48 51.2-51.2 51.2h-209.92z" />
<glyph unicode="&#xe922;" glyph-name="icon-setup" d="M373.76 586.24c-76.8-76.8-76.8-194.56 0-271.36 35.84-35.84 87.040-56.32 138.24-56.32s97.28 20.48 138.24 56.32c35.84 35.84 56.32 87.040 56.32 138.24s-20.48 97.28-56.32 138.24c-76.8 66.56-199.68 66.56-276.48-5.12zM573.44 386.56c-35.84-35.84-92.16-35.84-128 0s-35.84 92.16 0 128c20.48 15.36 46.080 20.48 66.56 20.48s46.080-10.24 61.44-25.6c15.36-15.36 25.6-40.96 25.6-61.44 5.12-25.6-5.12-46.080-25.6-61.44zM896 473.6l107.52 107.52-10.24 30.72c-20.48 61.44-51.2 117.76-97.28 168.96l-15.36 25.6-148.48-40.96c-20.48-5.12-46.080 5.12-51.2 30.72l-40.96 148.48-30.72 5.12c-66.56 10.24-128 10.24-189.44 0l-35.84-5.12-35.84-148.48c-5.12-20.48-30.72-35.84-51.2-30.72l-148.48 40.96-20.48-25.6c-40.96-51.2-76.8-102.4-97.28-163.84l-10.24-30.72 107.52-107.52c15.36-15.36 15.36-40.96 0-56.32l-107.52-107.52 10.24-30.72c20.48-61.44 51.2-117.76 97.28-168.96l15.36-25.6 148.48 40.96c10.24 5.12 20.48 0 30.72-5.12s15.36-15.36 20.48-25.6l40.96-148.48 30.72-5.12c30.72-5.12 66.56-10.24 97.28-10.24s61.44 5.12 97.28 10.24l30.72 5.12 40.96 148.48c5.12 20.48 25.6 35.84 51.2 30.72l148.48-40.96 20.48 25.6c40.96 51.2 76.8 102.4 97.28 163.84l10.24 30.72-107.52 107.52c-20.48 15.36-20.48 40.96-5.12 56.32zM839.68 202.24l-87.040 20.48c-76.8 20.48-153.6-25.6-174.080-102.4l-20.48-87.040c-30.72-5.12-61.44-5.12-92.16 0l-25.6 87.040c-10.24 35.84-35.84 66.56-66.56 87.040s-71.68 25.6-107.52 15.36l-87.040-20.48c-20.48 25.6-35.84 51.2-46.080 76.8l66.56 66.56c56.32 56.32 56.32 148.48 0 204.8l-61.44 61.44c10.24 25.6 25.6 56.32 46.080 76.8l87.040-20.48c76.8-20.48 153.6 25.6 174.080 102.4l20.48 87.040c30.72 5.12 61.44 5.12 92.16 0l25.6-87.040c20.48-76.8 97.28-122.88 174.080-102.4l87.040 20.48c20.48-25.6 30.72-51.2 46.080-76.8l-66.56-61.44c-56.32-56.32-56.32-148.48 0-204.8l61.44-61.44c-10.24-30.72-25.6-56.32-46.080-81.92z" />
<glyph unicode="&#xe923;" glyph-name="icon-subscription" d="M977.92 913.92c-61.44 61.44-158.72 61.44-215.040 0l-424.96-424.96c-20.48-20.48-35.84-46.080-40.96-71.68l-56.32-240.64 240.64 56.32c25.6 5.12 51.2 20.48 71.68 40.96l424.96 424.96c61.44 56.32 61.44 153.6 0 215.040zM455.68 330.24l-81.92-20.48 20.48 81.92c0 10.24 5.12 15.36 15.36 25.6l51.2 51.2 71.68-71.68-51.2-51.2c-5.12-10.24-15.36-15.36-25.6-15.36zM906.24 770.56l-302.080-302.080-71.68 71.68 302.080 302.080c10.24 10.24 25.6 15.36 35.84 15.36 15.36 0 25.6-5.12 35.84-15.36 20.48-20.48 20.48-51.2 0-71.68zM829.44 427.52c-30.72 0-51.2-20.48-51.2-51.2v-286.72c0-30.72-20.48-51.2-51.2-51.2h-573.44c-30.72 0-51.2 20.48-51.2 51.2v573.44c0 30.72 20.48 51.2 51.2 51.2h286.72c30.72 0 51.2 20.48 51.2 51.2s-20.48 51.2-51.2 51.2h-286.72c-87.040 0-153.6-66.56-153.6-153.6v-573.44c0-87.040 66.56-153.6 153.6-153.6h573.44c87.040 0 153.6 66.56 153.6 153.6v286.72c0 30.72-20.48 51.2-51.2 51.2z" />
<glyph unicode="&#xe924;" glyph-name="icon-superadmin-profile" d="M1003.52 69.12c-46.080 138.24-153.6 250.88-296.96 302.080 81.92 61.44 133.12 153.6 133.12 261.12 0 179.2-148.48 327.68-327.68 327.68s-327.68-148.48-327.68-327.68c0-107.52 51.2-204.8 133.12-261.12-143.36-51.2-256-163.84-296.96-302.080-20.48-66.56 30.72-133.12 97.28-133.12 143.36 0 302.080 0 445.44 0 128 0 245.76 0 337.92 0 71.68 0 122.88 66.56 102.4 133.12zM512 857.6c122.88 0 225.28-102.4 225.28-225.28s-102.4-225.28-225.28-225.28c-122.88 0-225.28 102.4-225.28 225.28s102.4 225.28 225.28 225.28zM563.2 38.4c-71.68 0-148.48 0-225.28 0s-148.48 0-220.16 0c51.2 153.6 215.040 266.24 394.24 266.24s343.040-107.52 389.12-266.24c-92.16 0-209.92 0-337.92 0z" />
<glyph unicode="&#xe925;" glyph-name="icon-support" d="M983.040 714.24c-5.12 10.24-10.24 25.6-15.36 35.84-15.36 30.72-56.32 40.96-81.92 15.36l-143.36-143.36-66.56 66.56 143.36 143.36c25.6 25.6 20.48 66.56-15.36 81.92-10.24 5.12-20.48 10.24-35.84 15.36-56.32 20.48-117.76 25.6-184.32 10.24-97.28-30.72-184.32-102.4-230.4-199.68-40.96-81.92-40.96-158.72-20.48-225.28l-256-256c-71.68-71.68-76.8-189.44 0-256 30.72-30.72 71.68-46.080 112.64-46.080 46.080 0 87.040 15.36 122.88 51.2l266.24 266.24c66.56-15.36 143.36-15.36 225.28 20.48 97.28 46.080 168.96 133.12 194.56 235.52 10.24 61.44 5.12 128-15.36 184.32zM660.48 360.96c-20.48 0-40.96 5.12-61.44 10.24l-56.32 15.36-307.2-307.2c-15.36-15.36-30.72-20.48-51.2-20.48s-35.84 5.12-51.2 20.48c-25.6 25.6-25.6 71.68 0 97.28l307.2 307.2-10.24 56.32c-5.12 20.48-5.12 40.96-5.12 61.44 0 133.12 107.52 240.64 240.64 240.64 10.24 0 15.36 0 25.6-5.12l-87.040-81.92c-40.96-40.96-40.96-107.52 0-143.36l66.56-66.56c20.48-20.48 46.080-30.72 71.68-30.72s51.2 10.24 71.68 30.72l81.92 81.92c0-10.24 5.12-15.36 5.12-25.6 0-133.12-107.52-240.64-240.64-240.64z" />
<glyph unicode="&#xe926;" glyph-name="icon-system-setting" d="M512 908.8c-204.8 0-409.6-51.2-409.6-168.96v-583.68c0-117.76 204.8-168.96 409.6-168.96s409.6 51.2 409.6 168.96v583.68c0 117.76-204.8 168.96-409.6 168.96zM819.2 355.84c-10.24-20.48-117.76-71.68-307.2-71.68-194.56 0-302.080 51.2-307.2 66.56v76.8c76.8-35.84 194.56-51.2 307.2-51.2s230.4 15.36 307.2 51.2v-71.68zM819.2 550.4c-10.24-20.48-117.76-71.68-307.2-71.68-194.56 0-302.080 51.2-307.2 66.56v76.8c76.8-35.84 194.56-51.2 307.2-51.2s230.4 15.36 307.2 51.2v-71.68zM512 806.4c184.32 0 286.72-46.080 307.2-66.56-20.48-20.48-122.88-66.56-307.2-66.56s-286.72 46.080-307.2 66.56c20.48 20.48 122.88 66.56 307.2 66.56zM512 89.6c-194.56 0-302.080 51.2-307.2 66.56v76.8c76.8-35.84 194.56-51.2 307.2-51.2s230.4 15.36 307.2 51.2v-71.68c-10.24-20.48-117.76-71.68-307.2-71.68z" />
<glyph unicode="&#xe927;" glyph-name="icon-time" d="M512 908.8c-256 0-460.8-204.8-460.8-460.8s204.8-460.8 460.8-460.8c256 0 460.8 204.8 460.8 460.8s-204.8 460.8-460.8 460.8zM512 89.6c-199.68 0-358.4 158.72-358.4 358.4s158.72 358.4 358.4 358.4c199.68 0 358.4-158.72 358.4-358.4s-158.72-358.4-358.4-358.4zM727.040 499.2h-163.84v163.84c0 30.72-20.48 51.2-51.2 51.2s-51.2-20.48-51.2-51.2v-266.24h266.24c30.72 0 51.2 20.48 51.2 51.2s-25.6 51.2-51.2 51.2z" />
<glyph unicode="&#xe928;" glyph-name="icon-upload" d="M870.4 806.4c-102.4 97.28-230.4 148.48-373.76 143.36-276.48-5.12-501.76-245.76-496.64-522.24 5.12-143.36 66.56-281.6 179.2-378.88 20.48-20.48 56.32-15.36 71.68 5.12 20.48 20.48 15.36 56.32-5.12 71.68-87.040 76.8-138.24 184.32-143.36 302.080-5.12 225.28 179.2 414.72 399.36 424.96 112.64 0 215.040-35.84 296.96-117.76 76.8-76.8 122.88-184.32 122.88-291.84 0-179.2-122.88-343.040-291.84-394.24-15.36-5.12-30.72 0-46.080 10.24s-20.48 25.6-20.48 40.96v368.64l87.040-87.040c20.48-20.48 51.2-20.48 71.68 0s20.48 51.2 0 71.68l-143.36 143.36c-15.36 15.36-40.96 25.6-61.44 25.6-5.12 0-5.12 0-10.24 0s-5.12 0-10.24 0c-15.36 0-35.84-10.24-51.2-25.6l-143.36-143.36c-20.48-20.48-20.48-51.2 0-71.68 10.24-10.24 25.6-15.36 35.84-15.36s25.6 5.12 35.84 15.36l87.040 87.040v-373.76c0-51.2 20.48-92.16 61.44-122.88 25.6-20.48 56.32-30.72 92.16-30.72 15.36 0 30.72 0 46.080 5.12 215.040 61.44 368.64 266.24 368.64 491.52-5.12 143.36-61.44 271.36-158.72 368.64z" />
</font>
</defs>
</svg>
