<?xml version="1.0" encoding="utf-8"?>
<!-- Generator: Adobe Illustrator 21.1.0, SVG Export Plug-In . SVG Version: 6.00 Build 0)  -->
<svg version="1.1" id="Layer_1" xmlns="http://www.w3.org/2000/svg" xmlns:xlink="http://www.w3.org/1999/xlink" x="0px" y="0px"
	 viewBox="0 0 133 150" style="enable-background:new 0 0 133 150;" xml:space="preserve">
<style type="text/css">
	.st0{fill:#00ACED;}
</style>
<g>
	<polygon class="st0" points="0.1,113.3 49.5,141.8 49.5,128.8 0.1,100.2 	"/>
	<polygon class="st0" points="0.1,91.3 49.5,119.9 49.5,106.8 0.1,78.3 	"/>
	<polygon class="st0" points="0.1,69.4 49.5,97.9 49.5,84.8 0.1,56.3 	"/>
	<path class="st0" d="M130,35l-1.1-0.7l-1.7-1l-10.1,5.8l-40,23.1L38.5,40l48.5-28l1.5-0.9l-6.3-3.6l-0.1,0.1L25.9,40l34.8,20.1
		c-1.6,0.6-3.1,1.5-4.3,2.5L17.1,40l60.7-35L69.3,0h-5.7L3,35L0.1,40v1.6v1.7l9.8,5.7l40.7,23.5c-0.1,0.8-0.2,1.7-0.2,2.6
		c0,6.9,4.3,12.7,10.4,15v45.3v13.1l1.6,0.9l1.2,0.7h5.7l60.7-35l2.8-4.9V40L130,35z M72.2,90c6.1-2.3,10.4-8.2,10.4-15
		c0-0.9-0.1-1.8-0.2-2.6l28.5-16.5v44.7L72.2,123V90z M66.5,79.7c-2.6,0-4.7-2.1-4.7-4.7s2.1-4.7,4.7-4.7c2.6,0,4.7,2.1,4.7,4.7
		S69.1,79.7,66.5,79.7z M121.5,106.8l-49.4,28.5v-5.1l45-26v-52l4.4-2.5V106.8z"/>
</g>
</svg>
